# xmcd
#
# Track frame offsets: 
#        150
#        11543
#        21780
#        37086
#        50176
#        64288
#        76218
#        89419
#        102360
#        114264
#
# Disc length: 1712 seconds
#
# Revision: 2
# Processed by: cddbd v1.5.2PL0 Copyright (c) Steve Scherf et al.
# Submitted via: ExactAudioCopyFreeDBPlugin 1.0
#
DISCID=7e06ae0a
DTITLE=Various Artist - Best of the Blues -  Disc 1
DYEAR=1900
DGENRE=Blues
TTITLE0=John Lee Hooker - Boom Boom
TTITLE1=Lightning Hopkins - Down Now Baby
TTITLE2=Muddy Waters - Country Blues
TTITLE3=Leadbelly - Good Morning Blues
TTITLE4=Bessie Smith - Lady Luck Blues
TTITLE5=Robert Johnson - When You've Got A Good Friend
TTITLE6=Big Joe Turner - Brother James
TTITLE7=Billie Holiday - St Louis Blues
TTITLE8=T Bone Walker - Sail on Boogie
TTITLE9=John Lee Hooker - Boogie Children
EXTD=
EXTT0=
EXTT1=
EXTT2=
EXTT3=
EXTT4=
EXTT5=
EXTT6=
EXTT7=
EXTT8=
EXTT9=
PLAYORDER=
